HIERARCHY
ROOT ui
{
	 OFFSET 0 0 0
	 CHANNELS 3 XPosition YPosition Z Position
	 EndSite
	 {
	 OFFSET 0 -1 0
	 }
}
ROOT li
{
	 OFFSET 0 0 0
	 CHANNELS 3 XPosition YPosition Z Position
	 EndSite
	 {
	 OFFSET 0 -1 0
	 }
}
ROOT ul
{
	 OFFSET 0 0 0
	 CHANNELS 3 XPosition YPosition Z Position
	 EndSite
	 {
	 OFFSET 0 -1 0
	 }
}
ROOT ll
{
	 OFFSET 0 0 0
	 CHANNELS 3 XPosition YPosition Z Position
	 EndSite
	 {
	 OFFSET 0 -1 0
	 }
}
ROOT tt
{
	 OFFSET 0 0 0
	 CHANNELS 3 XPosition YPosition Z Position
	 EndSite
	 {
	 OFFSET 0 -1 0
	 }
}
ROOT tb
{
	 OFFSET 0 0 0
	 CHANNELS 3 XPosition YPosition Z Position
	 EndSite
	 {
	 OFFSET 0 -1 0
	 }
}
ROOT td
{
	 OFFSET 0 0 0
	 CHANNELS 3 XPosition YPosition Z Position
	 EndSite
	 {
	 OFFSET 0 -1 0
	 }
}
ROOT v
{
	 OFFSET 0 0 0
	 CHANNELS 3 XPosition YPosition Z Position
	 EndSite
	 {
	 OFFSET 0 -1 0
	 }
}
ROOT bn
{
	 OFFSET 0 0 0
	 CHANNELS 3 XPosition YPosition Z Position
	 EndSite
	 {
	 OFFSET 0 -1 0
	 }
}
MOTION
Frames: 30
Frame Time: 0.002
2.3508499562740326E-4	4.19624000787735E-4	0		0.4996097717285156	-2.484439208984375	0		-1.07936669921875	0.10080326080322266	0		-0.6287244873046876	-3.091397705078125	0		2.185132568359375	-1.2098533935546876	0		3.57042626953125	-0.34376168823242187	0		4.7823505859375	-0.16011930847167968	0		6.04270068359375	0.5128449096679687	0		-0.12511541748046875	5.91300048828125	0		
5.070419907569886E-4	9.927300363779068E-5	0		0.4948429565429687	-2.491669677734375	0		-1.161133544921875	0.09869564819335938	0		-0.7043457641601563	-3.089584716796875	0		2.17218115234375	-1.2269163818359374	0		3.5526337890625	-0.34871328735351564	0		4.78262646484375	-0.1603114929199219	0		6.042958984375	0.5126865234375	0		-0.12695628356933594	5.91570654296875	0		
8.059089779853821E-4	-2.2493499517440795E-4	0		0.49318017578125	-2.49394970703125	0		-1.08384619140625	0.09717604827880859	0		-0.6262733154296874	-3.1111044921875	0		2.20720751953125	-1.2477076416015624	0		3.552942138671875	-0.3489400634765625	0		4.78779345703125	-0.1695790557861328	0		6.04324365234375	0.512528076171875	0		-0.12681968688964843	5.91537890625	0		
0.004173872947692871	0.0024030280113220216	0		0.4666063232421875	-2.49185546875	0		-1.18360498046875	0.0923281707763672	0		-0.7198222045898437	-3.108031005859375	0		2.22317138671875	-1.274210693359375	0		3.58699951171875	-0.36767776489257814	0		4.7794541015625	-0.14763816833496093	0		6.0476728515625	0.5203096313476563	0		-0.1274812240600586	5.9270625	0		
0.01742587089538574	-0.004119056224822998	0		0.5219697265625	-2.4959970703125	0		-1.0541126708984374	0.1010240478515625	0		-0.6135675048828125	-3.12097314453125	0		2.248307861328125	-1.29084912109375	0		3.571701904296875	-0.34466455078125	0		4.794890625	-0.14205575561523437	0		6.048001953125	0.5201546630859375	0		-0.12551710510253905	5.912703125	0		
0.0018326150178909302	-0.0012047699689865113	0		0.4613480224609375	-2.49939111328125	0		-1.1439110107421875	0.09102099609375	0		-0.693154052734375	-3.12311474609375	0		2.238510498046875	-1.303958984375	0		3.569801513671875	-0.36285604858398435	0		4.7972841796875	-0.1402744598388672	0		6.04422705078125	0.5120632934570313	0		-0.12629720306396483	5.91438818359375	0		
0.005245872974395752	0.0014264609813690187	0		0.5096031188964844	-2.512419921875	0		-1.1435450439453125	0.09066459655761719	0		-0.6346871948242188	-3.123328125	0		2.228707763671875	-1.3180665283203126	0		3.5742548828125	-0.3581374206542969	0		4.79177783203125	-0.13237089538574218	0		6.0355966796875	0.5130484619140625	0		-0.12609873962402343	5.91406103515625	0		
-0.024426637649536134	-0.0014425489902496337	0		0.49461123657226563	-2.541496337890625	0		-1.1762347412109375	0.08680794525146485	0		-0.6983418579101562	-3.130705810546875	0		2.262811279296875	-1.3388284912109376	0		3.593512451171875	-0.3666378479003906	0		4.79112060546875	-0.13453799438476563	0		6.0400703125	0.5208407592773437	0		-0.16096873474121093	5.909263671875	0		
0.005976686000823975	7.96875E-4	0		0.5199811401367187	-2.5461669921875	0		-1.1259107666015624	0.08371710968017577	0		-0.69686328125	-3.1290517578125	0		2.228259033203125	-1.3355543212890626	0		3.578229736328125	-0.34361285400390623	0		4.80479833984375	-0.11391278839111328	0		6.04528271484375	0.5116235656738282	0		-0.1607711181640625	5.90894775390625	0		
-0.01661252021789551	0.004837634086608887	0		0.49546084594726564	-2.54208251953125	0		-1.156441650390625	0.09184619903564453	0		-0.6615087280273437	-3.134893798828125	0		2.262341552734375	-1.356301025390625	0		3.580244384765625	-0.3668455810546875	0		4.8033740234375	-0.09905697631835937	0		6.04075244140625	0.5205582275390624	0		-0.16058192443847658	5.90864111328125	0		
0.0066565279960632325	2.0451299846172333E-4	0		0.541645263671875	-2.55704345703125	0		-1.1302794189453125	0.08013928985595703	0		-0.699061279296875	-3.132636474609375	0		2.264499755859375	-1.3705606689453125	0		3.615879150390625	-0.3475656433105469	0		4.81060302734375	-0.10632514190673828	0		6.04906884765625	0.520306884765625	0		-0.12632008361816408	5.91383935546875	0		
-0.019029329299926758	3.1298500299453734E-4	0		0.4881025085449219	-2.551505615234375	0		-1.12997021484375	0.07983214569091797	0		-0.6308404541015625	-3.14494189453125	0		2.291650146484375	-1.3841802978515625	0		3.59002392578125	-0.35936309814453127	0		4.81424365234375	-0.08452664184570312	0		6.0493671875	0.5201842041015625	0		-0.1271457977294922	5.91457275390625	0		
0.004213676929473877	-0.003292818069458008	0		0.5492133178710937	-2.568660888671875	0		-1.15682763671875	0.06994070434570313	0		-0.70135888671875	-3.137169677734375	0		2.27884326171875	-1.3931927490234375	0		3.593530517578125	-0.3455823974609375	0		4.81762451171875	-0.07871394348144531	0		6.045525390625	0.5121336669921875	0		-0.160106201171875	5.9077958984375	0		
-0.015411145210266113	0.003753103971481323	0		0.5075373840332031	-2.5692744140625	0		-1.1565601806640624	0.06966177368164063	0		-0.6033319702148437	-3.15988623046875	0		2.302011962890625	-1.4027242431640625	0		3.6275380859375	-0.36424261474609376	0		4.82096923828125	-0.07388654327392578	0		6.055017578125	0.527902099609375	0		-0.09459383392333984	5.933576171875	0		
0.011836060523986816	0.0031197500228881837	0		0.5518924560546875	-2.567146240234375	0		-1.1522529296875	0.07333904266357422	0		-0.6827117309570313	-3.13995458984375	0		2.305341796875	-1.3999442138671876	0		3.6111396484375	-0.34113531494140625	0		4.816591796875	-0.048926563262939454	0		6.05813623046875	0.5197787475585938	0		-0.12956449890136718	5.9288583984375	0		
0.01206967544555664	0.0029028849601745606	0		0.5221802368164062	-2.56790625	0		-1.121142578125	0.0646357650756836	0		-0.626418701171875	-3.142015625	0		2.35029638671875	-1.421764404296875	0		3.61318994140625	-0.3542883605957031	0		4.8209150390625	-0.04308041763305664	0		6.05448974609375	0.5287743530273438	0		-0.1266891860961914	5.9145947265625	0		
0.008229546546936035	-0.0012379460334777832	0		0.5453438720703125	-2.576431640625	0		-1.1649652099609376	0.06205527114868164	0		-0.6970092163085938	-3.134186767578125	0		2.36153515625	-1.42306689453125	0		3.625607666015625	-0.34157485961914064	0		4.82113427734375	-0.04315786361694336	0		6.0495771484375	0.520802978515625	0		-0.12662171936035158	5.91439111328125	0		
-0.017564966201782228	-0.0010395209789276123	0		0.51662939453125	-2.575175537109375	0		-1.1147989501953126	0.05910639572143555	0		-0.6238088989257813	-3.1404619140625	0		2.367670166015625	-1.4302789306640624	0		3.631700439453125	-0.34975494384765626	0		4.8285283203125	-0.030324731826782227	0		6.046884765625	0.5288147583007813	0		-0.1265684051513672	5.91420361328125	0		
0.00861778163909912	-0.0015900739431381225	0		0.5018211364746094	-2.579110595703125	0		-1.187665771484375	0.055983062744140624	0		-0.7263147583007813	-3.124134521484375	0		2.3768310546875	-1.4345208740234374	0		3.6243359375	-0.3197196960449219	0		4.83203759765625	-0.008420737266540527	0		6.05117431640625	0.5367355346679688	0		-0.16061276245117187	5.9085322265625	0		
0.012843335151672363	0.0021984360218048095	0		0.5549701538085937	-2.58502783203125	0		-1.114448974609375	0.0587318115234375	0		-0.6172029418945313	-3.1339013671875	0		2.394103759765625	-1.4298673095703125	0		3.64733251953125	-0.3321229553222656	0		4.852408203125	0.005245619773864746	0		6.05521142578125	0.52866748046875	0		-0.16058448791503907	5.9083759765625	0		
-0.014006272315979004	0.0024569199085235595	0		0.5551749877929687	-2.585152587890625	0		-1.152415771484375	0.05112718963623047	0		-0.6977283325195313	-3.115868408203125	0		2.40616455078125	-1.4381260986328126	0		3.66877783203125	-0.3124887084960937	0		4.8525556640625	0.005216145038604737	0		6.05534716796875	0.5286646728515625	0		-0.16056793212890624	5.9082353515625	0		
0.009058276176452636	-0.002000997066497803	0		0.5522811889648438	-2.590218505859375	0		-1.051360595703125	0.04550550842285156	0		-0.6375155639648438	-3.1148818359375	0		2.421259765625	-1.4424169921875	0		3.664822509765625	-0.3184755554199219	0		4.84779833984375	0.013266898155212403	0		6.046462890625	0.5287996826171875	0		-0.12746578216552734	5.914626953125	0		
-0.01683759880065918	-0.001728410005569458	0		0.5254788818359375	-2.586921142578125	0		-1.19624462890625	0.047495037078857424	0		-0.6923048095703125	-3.11119873046875	0		2.45534130859375	-1.4459737548828124	0		3.66004736328125	-0.31044027709960936	0		4.86507275390625	0.025003271102905275	0		6.0475537109375	0.5287938842773438	0		-0.16057659912109376	5.908	0		
0.01329315185546875	0.001740475058555603	0		0.5545972290039063	-2.587427734375	0		-1.1131204833984376	0.05017020797729492	0		-0.64809130859375	-3.105946044921875	0		2.4554423828125	-1.446023193359375	0		3.695124755859375	-0.31097869873046874	0		4.8733369140625	0.03787852478027344	0		6.0636181640625	0.5285748291015625	0		-0.1255511474609375	5.91139306640625	0		
-0.005554090023040772	0.008937482833862304	0		0.5317926635742187	-2.58016357421875	0		-1.148010498046875	0.05458218765258789	0		-0.6157766723632813	-3.09150341796875	0		2.457558349609375	-1.443091796875	0		3.687616455078125	-0.28088424682617186	0		4.872603515625	0.052891841888427736	0		6.05590673828125	0.5457093505859375	0		-0.16065336608886718	5.907822265625	0		
0.009305023193359374	-0.002346144914627075	0		0.5547479858398437	-2.587555908203125	0		-1.0451759033203125	0.04100112533569336	0		-0.6374306640625	-3.07226123046875	0		2.472541259765625	-1.447339111328125	0		3.694349853515625	-0.3009951171875	0		4.8846513671875	0.054723670959472656	0		6.06367138671875	0.528619140625	0		-0.1617064514160156	5.908767578125	0		
-0.016700780868530274	-0.0020235469341278074	0		0.5257782592773438	-2.58718212890625	0		-1.1611728515625	0.042617382049560545	0		-0.6302957153320312	-3.065427978515625	0		2.488521728515625	-1.4495927734375	0		3.692534423828125	-0.28797174072265624	0		4.87772998046875	0.06083692932128906	0		6.0507734375	0.536835693359375	0		-0.12771319580078125	5.91421533203125	0		
0.009257084846496582	-0.0024478020668029783	0		0.552725830078125	-2.59061376953125	0		-1.1262745361328126	0.038048080444335934	0		-0.7069534301757813	-3.04136669921875	0		2.47253173828125	-1.447375	0		3.72536474609375	-0.29744888305664063	0		4.885892578125	0.0747357406616211	0		6.046611328125	0.5289262084960937	0		-0.12782888793945313	5.9141669921875	0		
-0.013753332138061524	0.0018466140031814576	0		0.500807861328125	-2.581892333984375	0		-1.200265625	0.04406870651245117	0		-0.6578330688476562	-3.03112646484375	0		2.52445849609375	-1.4491385498046876	0		3.707821533203125	-0.26118539428710935	0		4.88400927734375	0.08778353881835937	0		6.0596484375	0.5367709350585937	0		-0.12797142791748048	5.91412646484375	0		
0.01314142894744873	0.0014219599962234496	0		0.5556854858398438	-2.585716796875	0		-1.12239111328125	0.04189119720458984	0		-0.7044176025390625	-2.99748876953125	0		2.52743017578125	-1.445186767578125	0		3.727459228515625	-0.2794643859863281	0		4.90822265625	0.10945567321777344	0		6.0585546875	0.5378211059570313	0		-0.16222438049316407	5.9085859375	0		
